<svg xmlns="http://www.w3.org/2000/svg" version="1.1" xmlns:xlink="http://www.w3.org/1999/xlink" viewBox="0 0 7.002801501374369 6.0206846791805635"><g transform="matrix(0.847270714380205,0,0,0.847270714380205,0.994533870317714,4.14669934943797)"><g transform="matrix(1,0,0,1,0,0)" clip-path="url(#SvgjsClipPath73430)"><g clip-path="url(#SvgjsClipPath73428aee04460-1660-4b27-87ae-cd0b2dc2960f)"><path d=" M 2.1309834306023867 -2.017589216592271 L 2.9587049287690212 -2.8451373753251445 L 3.7862530875018954 -2.0174158771585096 L 2.958531589335261 -1.1898677184256359 Z" fill="#a5b2ba" transform="matrix(1,0,0,1,0,0)" fill-rule="nonzero"></path></g><g clip-path="url(#SvgjsClipPath73428aee04460-1660-4b27-87ae-cd0b2dc2960f)"><path d=" M 2.530343245681531 -3.2535234833653544 L 1.2943826074775289 -2.0175628451613523 L 2.507154490743369 -0.805370680768966 L 1.951783809974404 -0.25 L 1.9407691513787773 -0.260434939722173 L 0.7390119267085635 -1.4621921643923872 L 0.7053882320482296 -1.4963955779261746 C 0.42828261053720107 -1.7727282409392648 0.33745998702940233 -2.006934665814695 0.4329203615248334 -2.199014852552465 C 0.4830293745212643 -2.2962647257316524 0.5490635472670893 -2.3844409207928434 0.628285621878842 -2.459888345606779 L 1.9749725649125653 -3.808894164134319 Z" fill="#102036" transform="matrix(1,0,0,1,0,0)" fill-rule="evenodd"></path></g><g clip-path="url(#SvgjsClipPath73428aee04460-1660-4b27-87ae-cd0b2dc2960f)"><path d=" M 3.3871677406465936 -3.2535234833653544 L 4.623128378850596 -2.0175628451613523 L 3.4109362144582094 -0.805370680768966 L 3.9663068952271745 -0.25 L 3.9773215538228013 -0.260434939722173 L 5.17849905961956 -1.4621921643923872 L 5.2121227542798945 -1.4963955779261746 C 5.4892283757909235 -1.7727282409392648 5.580050999298724 -2.006934665814695 5.484590624803292 -2.199014852552465 C 5.435182567598018 -2.2960941651266045 5.369939934909537 -2.3842598849759034 5.291544239943098 -2.459888345606781 L 3.942538421415559 -3.808894164134319 Z" fill="#3682ae" transform="matrix(1,0,0,1,0,0)" fill-rule="evenodd"></path></g></g><g><path d=" M 0.321 1.1099999999999999 L 0.006 0.05999999999999983 L 0.2655 0.05999999999999983 L 0.423 0.6119999999999999 Q 0.4335 0.6494999999999999 0.44175000000000003 0.6877499999999999 Q 0.45 0.7259999999999999 0.45525 0.7604999999999998 Q 0.4605 0.7949999999999999 0.4635 0.8242499999999999 Q 0.4665 0.8534999999999999 0.46950000000000003 0.8729999999999999 L 0.4365 0.8729999999999999 Q 0.4455 0.8174999999999999 0.45225 0.7739999999999998 Q 0.459 0.7304999999999999 0.468 0.6922499999999998 Q 0.47700000000000004 0.6539999999999999 0.4905 0.6119999999999999 L 0.6465 0.1964999999999999 L 0.8505 0.1964999999999999 L 1.0035 0.6119999999999999 Q 1.0215 0.6614999999999999 1.0335 0.7049999999999998 Q 1.0455 0.7484999999999999 1.0522500000000001 0.7882499999999999 Q 1.059 0.8279999999999998 1.0635000000000001 0.8669999999999999 L 1.0335 0.8714999999999998 Q 1.0365 0.8444999999999998 1.038 0.8212499999999998 Q 1.0395 0.7979999999999998 1.04175 0.7762499999999999 Q 1.044 0.7545 1.047 0.7304999999999999 Q 1.05 0.7064999999999999 1.056 0.6772499999999999 Q 1.062 0.6479999999999999 1.0725 0.6104999999999998 L 1.2285 0.05999999999999983 L 1.482 0.05999999999999983 L 1.167 1.1099999999999999 L 0.972 1.1099999999999999 L 0.723 0.5054999999999998 L 0.7515000000000001 0.5084999999999998 L 0.522 1.1099999999999999 L 0.321 1.1099999999999999 M 1.937934814453125 1.1249999999999998 Q 1.805934814453125 1.1249999999999998 1.708434814453125 1.07175 Q 1.610934814453125 1.0185 1.556934814453125 0.9262499999999999 Q 1.502934814453125 0.8339999999999999 1.502934814453125 0.7154999999999998 Q 1.502934814453125 0.6239999999999999 1.532934814453125 0.5474999999999999 Q 1.562934814453125 0.47099999999999986 1.616934814453125 0.41474999999999984 Q 1.670934814453125 0.3584999999999998 1.745184814453125 0.3277499999999999 Q 1.819434814453125 0.2969999999999998 1.907934814453125 0.2969999999999998 Q 1.991934814453125 0.2969999999999998 2.061684814453125 0.32699999999999985 Q 2.131434814453125 0.3569999999999999 2.182434814453125 0.4109999999999998 Q 2.233434814453125 0.46499999999999986 2.260434814453125 0.5384999999999999 Q 2.287434814453125 0.6119999999999999 2.284434814453125 0.6989999999999998 L 2.282934814453125 0.7634999999999998 L 1.648434814453125 0.7634999999999998 L 1.613934814453125 0.6284999999999998 L 2.087934814453125 0.6284999999999998 L 2.062434814453125 0.6569999999999998 L 2.062434814453125 0.6269999999999999 Q 2.059434814453125 0.5894999999999999 2.039184814453125 0.5602499999999999 Q 2.018934814453125 0.5309999999999999 1.985934814453125 0.5144999999999998 Q 1.952934814453125 0.4979999999999999 1.910934814453125 0.4979999999999999 Q 1.852434814453125 0.4979999999999999 1.811184814453125 0.5212499999999999 Q 1.769934814453125 0.5444999999999999 1.748934814453125 0.5887499999999999 Q 1.727934814453125 0.6329999999999998 1.727934814453125 0.6974999999999998 Q 1.727934814453125 0.7634999999999998 1.755684814453125 0.8122499999999999 Q 1.7834348144531251 0.8609999999999999 1.836684814453125 0.8879999999999999 Q 1.889934814453125 0.9149999999999998 1.963434814453125 0.9149999999999998 Q 2.014434814453125 0.9149999999999998 2.054184814453125 0.8999999999999999 Q 2.093934814453125 0.8849999999999999 2.140434814453125 0.8489999999999999 L 2.252934814453125 1.0079999999999998 Q 2.206434814453125 1.0484999999999998 2.153934814453125 1.0739999999999998 Q 2.1014348144531247 1.0995 2.046684814453125 1.11225 Q 1.991934814453125 1.1249999999999998 1.937934814453125 1.1249999999999998 M 2.9159326171875 1.1264999999999998 Q 2.8619326171875 1.1264999999999998 2.8124326171875 1.1115 Q 2.7629326171875 1.0964999999999998 2.7231826171874998 1.071 Q 2.6834326171875 1.0454999999999999 2.6571826171875 1.01175 Q 2.6309326171875 0.9779999999999999 2.6219326171875 0.9419999999999998 L 2.6744326171875 0.9239999999999999 L 2.6609326171875 1.1084999999999998 L 2.4374326171875 1.1084999999999998 L 2.4374326171875 -2.220446049250313e-16 L 2.6789326171875 -2.220446049250313e-16 L 2.6789326171875 0.5039999999999999 L 2.6294326171874998 0.4859999999999999 Q 2.6384326171875 0.44699999999999984 2.6639326171875 0.4132499999999999 Q 2.6894326171875 0.37949999999999984 2.7284326171875 0.35324999999999984 Q 2.7674326171875 0.32699999999999985 2.8139326171875 0.31199999999999983 Q 2.8604326171875 0.2969999999999998 2.9099326171874997 0.2969999999999998 Q 3.0134326171875 0.2969999999999998 3.0936826171875 0.35024999999999984 Q 3.1739326171875 0.40349999999999986 3.2204326171875 0.49724999999999986 Q 3.2669326171875 0.5909999999999999 3.2669326171875 0.7109999999999999 Q 3.2669326171875 0.8324999999999998 3.2211826171875 0.9262499999999999 Q 3.1754326171875 1.0199999999999998 3.0959326171875 1.0732499999999998 Q 3.0164326171875 1.1264999999999998 2.9159326171875 1.1264999999999998 M 2.8529326171875002 0.9239999999999999 Q 2.9069326171875 0.9239999999999999 2.9474326171875003 0.8969999999999999 Q 2.9879326171875 0.8699999999999999 3.0096826171875 0.8227499999999999 Q 3.0314326171875 0.7754999999999999 3.0314326171875 0.7109999999999999 Q 3.0314326171875 0.6479999999999999 3.0096826171875 0.5999999999999999 Q 2.9879326171875 0.5519999999999998 2.9474326171875003 0.5264999999999999 Q 2.9069326171875 0.5009999999999999 2.8529326171875002 0.5009999999999999 Q 2.7974326171875 0.5009999999999999 2.7569326171875 0.5264999999999999 Q 2.7164326171875 0.5519999999999998 2.6939326171875 0.5999999999999999 Q 2.6714326171875 0.6479999999999999 2.6714326171875 0.7109999999999999 Q 2.6714326171875 0.7754999999999999 2.6939326171875 0.8227499999999999 Q 2.7164326171875 0.8699999999999999 2.7569326171875 0.8969999999999999 Q 2.7974326171875 0.9239999999999999 2.8529326171875002 0.9239999999999999 M 3.799462646484375 1.1249999999999998 Q 3.674962646484375 1.1249999999999998 3.578212646484375 1.071 Q 3.481462646484375 1.017 3.425212646484375 0.9239999999999999 Q 3.368962646484375 0.8309999999999998 3.368962646484375 0.7109999999999999 Q 3.368962646484375 0.5909999999999999 3.425212646484375 0.4979999999999999 Q 3.481462646484375 0.4049999999999999 3.578212646484375 0.35099999999999987 Q 3.674962646484375 0.2969999999999998 3.799462646484375 0.2969999999999998 Q 3.923962646484375 0.2969999999999998 4.020712646484375 0.35099999999999987 Q 4.117462646484375 0.4049999999999999 4.172962646484375 0.4979999999999999 Q 4.228462646484375 0.5909999999999999 4.228462646484375 0.7109999999999999 Q 4.228462646484375 0.8309999999999998 4.172962646484375 0.9239999999999999 Q 4.117462646484375 1.017 4.020712646484375 1.071 Q 3.923962646484375 1.1249999999999998 3.799462646484375 1.1249999999999998 M 3.799462646484375 0.9179999999999999 Q 3.853462646484375 0.9179999999999999 3.895462646484375 0.8909999999999999 Q 3.937462646484375 0.8639999999999999 3.961462646484375 0.8174999999999999 Q 3.985462646484375 0.7709999999999999 3.983962646484375 0.7109999999999999 Q 3.985462646484375 0.6509999999999998 3.961462646484375 0.6037499999999999 Q 3.937462646484375 0.5564999999999999 3.895462646484375 0.5294999999999999 Q 3.853462646484375 0.5024999999999998 3.799462646484375 0.5024999999999998 Q 3.745462646484375 0.5024999999999998 3.702712646484375 0.5294999999999999 Q 3.659962646484375 0.5564999999999999 3.635962646484375 0.6037499999999999 Q 3.611962646484375 0.6509999999999998 3.613462646484375 0.7109999999999999 Q 3.611962646484375 0.7709999999999999 3.635962646484375 0.8174999999999999 Q 3.659962646484375 0.8639999999999999 3.702712646484375 0.8909999999999999 Q 3.745462646484375 0.9179999999999999 3.799462646484375 0.9179999999999999 M 4.385949462890625 1.1099999999999999 L 4.385949462890625 0.3134999999999999 L 4.613949462890625 0.3134999999999999 L 4.624449462890625 0.5729999999999998 L 4.579449462890625 0.5234999999999999 Q 4.597449462890625 0.45899999999999985 4.638699462890625 0.4079999999999998 Q 4.679949462890625 0.3569999999999999 4.735449462890625 0.32699999999999985 Q 4.790949462890625 0.2969999999999998 4.8539494628906255 0.2969999999999998 Q 4.880949462890625 0.2969999999999998 4.904199462890625 0.3014999999999999 Q 4.927449462890625 0.3059999999999998 4.946949462890625 0.31199999999999983 L 4.880949462890625 0.5774999999999999 Q 4.864449462890625 0.5669999999999998 4.836699462890625 0.5602499999999999 Q 4.808949462890625 0.5534999999999999 4.778949462890625 0.5534999999999999 Q 4.745949462890625 0.5534999999999999 4.717449462890625 0.5647499999999999 Q 4.688949462890625 0.5759999999999998 4.669449462890625 0.5969999999999999 Q 4.649949462890625 0.6179999999999999 4.638699462890625 0.6464999999999999 Q 4.627449462890625 0.6749999999999998 4.627449462890625 0.7109999999999999 L 4.627449462890625 1.1099999999999999 L 4.385949462890625 1.1099999999999999 M 5.32951611328125 1.1235 Q 5.22901611328125 1.1235 5.15026611328125 1.07025 Q 5.07151611328125 1.017 5.02501611328125 0.9232499999999999 Q 4.97851611328125 0.8294999999999999 4.97851611328125 0.7109999999999999 Q 4.97851611328125 0.5894999999999999 5.02501611328125 0.49649999999999983 Q 5.07151611328125 0.40349999999999986 5.15251611328125 0.35024999999999984 Q 5.23351611328125 0.2969999999999998 5.33701611328125 0.2969999999999998 Q 5.39401611328125 0.2969999999999998 5.44126611328125 0.3134999999999999 Q 5.48851611328125 0.32999999999999985 5.52451611328125 0.35924999999999985 Q 5.56051611328125 0.38849999999999985 5.58601611328125 0.42674999999999985 Q 5.61151611328125 0.46499999999999986 5.62351611328125 0.5084999999999998 L 5.57401611328125 0.5024999999999998 L 5.57401611328125 0.3134999999999999 L 5.81251611328125 0.3134999999999999 L 5.81251611328125 1.1099999999999999 L 5.56951611328125 1.1099999999999999 L 5.56951611328125 0.9179999999999999 L 5.62351611328125 0.9164999999999999 Q 5.61151611328125 0.9584999999999999 5.58451611328125 0.9959999999999999 Q 5.55751611328125 1.0334999999999999 5.51851611328125 1.0619999999999998 Q 5.4795161132812495 1.0904999999999998 5.43151611328125 1.107 Q 5.38351611328125 1.1235 5.32951611328125 1.1235 M 5.39551611328125 0.9209999999999998 Q 5.45101611328125 0.9209999999999998 5.49151611328125 0.8954999999999999 Q 5.53201611328125 0.8699999999999999 5.55451611328125 0.8227499999999999 Q 5.57701611328125 0.7754999999999999 5.57701611328125 0.7109999999999999 Q 5.57701611328125 0.6464999999999999 5.55451611328125 0.5992499999999998 Q 5.53201611328125 0.5519999999999998 5.49151611328125 0.5257499999999998 Q 5.45101611328125 0.49949999999999983 5.39551611328125 0.49949999999999983 Q 5.34151611328125 0.49949999999999983 5.30176611328125 0.5257499999999998 Q 5.26201611328125 0.5519999999999998 5.23951611328125 0.5992499999999998 Q 5.21701611328125 0.6464999999999999 5.21701611328125 0.7109999999999999 Q 5.21701611328125 0.7754999999999999 5.23951611328125 0.8227499999999999 Q 5.26201611328125 0.8699999999999999 5.30176611328125 0.8954999999999999 Q 5.34151611328125 0.9209999999999998 5.39551611328125 0.9209999999999998" fill="#102036" fill-rule="nonzero"></path></g><g></g></g><defs><clipPath id="SvgjsClipPath73430"><path d=" M 0.39639807249722914 -3.8088941641343195 h 5.124714841333667 v 3.5588941641343195 h -5.124714841333667 Z"></path></clipPath><clipPath id="SvgjsClipPath73428aee04460-1660-4b27-87ae-cd0b2dc2960f"><path d=" M 0.39639807249722914 -3.808894164134319 L 5.521112913830896 -3.808894164134319 L 5.521112913830896 -0.25 L 0.39639807249722914 -0.25 Z"></path></clipPath></defs></svg>